<svg version="1.1" xmlns:xlink="http://www.w3.org/1999/xlink" xmlns="http://www.w3.org/2000/svg" viewBox="0 184.13793103448276 900.2066590126292 76.55172413793103" id="visual" style="max-height: 500px" width="900.2066590126292" height="76.55172413793103"><path stroke-linejoin="miter" stroke-linecap="round" fill="#31354b" d="M0 187L21.5 198.5C43 210 86 233 128.8 239C171.7 245 214.3 234 257.2 224.3C300 214.7 343 206.3 385.8 211C428.7 215.7 471.3 233.3 514.2 241.2C557 249 600 247 642.8 240C685.7 233 728.3 221 771.2 223C814 225 857 241 878.5 249L900 257L900 301L878.5 301C857 301 814 301 771.2 301C728.3 301 685.7 301 642.8 301C600 301 557 301 514.2 301C471.3 301 428.7 301 385.8 301C343 301 300 301 257.2 301C214.3 301 171.7 301 128.8 301C86 301 43 301 21.5 301L0 301Z"/></svg>