<svg id="visual" viewBox="0 0 960 540" width="960" height="540" xmlns="http://www.w3.org/2000/svg" xmlns:xlink="http://www.w3.org/1999/xlink" version="1.1"><rect x="0" y="0" width="960" height="540" fill="#fff6c2"></rect><defs><linearGradient id="grad1_0" x1="43.8%" y1="0%" x2="100%" y2="100%"><stop offset="14.444444444444446%" stop-color="#f7a1ad" stop-opacity="1"></stop><stop offset="85.55555555555554%" stop-color="#f7a1ad" stop-opacity="1"></stop></linearGradient></defs><defs><linearGradient id="grad1_1" x1="43.8%" y1="0%" x2="100%" y2="100%"><stop offset="14.444444444444446%" stop-color="#f7a1ad" stop-opacity="1"></stop><stop offset="85.55555555555554%" stop-color="#ffada8" stop-opacity="1"></stop></linearGradient></defs><defs><linearGradient id="grad1_2" x1="43.8%" y1="0%" x2="100%" y2="100%"><stop offset="14.444444444444446%" stop-color="#ffbba6" stop-opacity="1"></stop><stop offset="85.55555555555554%" stop-color="#ffada8" stop-opacity="1"></stop></linearGradient></defs><defs><linearGradient id="grad1_3" x1="43.8%" y1="0%" x2="100%" y2="100%"><stop offset="14.444444444444446%" stop-color="#ffbba6" stop-opacity="1"></stop><stop offset="85.55555555555554%" stop-color="#ffcaa7" stop-opacity="1"></stop></linearGradient></defs><defs><linearGradient id="grad1_4" x1="43.8%" y1="0%" x2="100%" y2="100%"><stop offset="14.444444444444446%" stop-color="#ffd9ac" stop-opacity="1"></stop><stop offset="85.55555555555554%" stop-color="#ffcaa7" stop-opacity="1"></stop></linearGradient></defs><defs><linearGradient id="grad1_5" x1="43.8%" y1="0%" x2="100%" y2="100%"><stop offset="14.444444444444446%" stop-color="#ffd9ac" stop-opacity="1"></stop><stop offset="85.55555555555554%" stop-color="#ffe7b5" stop-opacity="1"></stop></linearGradient></defs><defs><linearGradient id="grad1_6" x1="43.8%" y1="0%" x2="100%" y2="100%"><stop offset="14.444444444444446%" stop-color="#fff6c2" stop-opacity="1"></stop><stop offset="85.55555555555554%" stop-color="#ffe7b5" stop-opacity="1"></stop></linearGradient></defs><defs><linearGradient id="grad2_0" x1="0%" y1="0%" x2="56.3%" y2="100%"><stop offset="14.444444444444446%" stop-color="#f7a1ad" stop-opacity="1"></stop><stop offset="85.55555555555554%" stop-color="#f7a1ad" stop-opacity="1"></stop></linearGradient></defs><defs><linearGradient id="grad2_1" x1="0%" y1="0%" x2="56.3%" y2="100%"><stop offset="14.444444444444446%" stop-color="#ffada8" stop-opacity="1"></stop><stop offset="85.55555555555554%" stop-color="#f7a1ad" stop-opacity="1"></stop></linearGradient></defs><defs><linearGradient id="grad2_2" x1="0%" y1="0%" x2="56.3%" y2="100%"><stop offset="14.444444444444446%" stop-color="#ffada8" stop-opacity="1"></stop><stop offset="85.55555555555554%" stop-color="#ffbba6" stop-opacity="1"></stop></linearGradient></defs><defs><linearGradient id="grad2_3" x1="0%" y1="0%" x2="56.3%" y2="100%"><stop offset="14.444444444444446%" stop-color="#ffcaa7" stop-opacity="1"></stop><stop offset="85.55555555555554%" stop-color="#ffbba6" stop-opacity="1"></stop></linearGradient></defs><defs><linearGradient id="grad2_4" x1="0%" y1="0%" x2="56.3%" y2="100%"><stop offset="14.444444444444446%" stop-color="#ffcaa7" stop-opacity="1"></stop><stop offset="85.55555555555554%" stop-color="#ffd9ac" stop-opacity="1"></stop></linearGradient></defs><defs><linearGradient id="grad2_5" x1="0%" y1="0%" x2="56.3%" y2="100%"><stop offset="14.444444444444446%" stop-color="#ffe7b5" stop-opacity="1"></stop><stop offset="85.55555555555554%" stop-color="#ffd9ac" stop-opacity="1"></stop></linearGradient></defs><defs><linearGradient id="grad2_6" x1="0%" y1="0%" x2="56.3%" y2="100%"><stop offset="14.444444444444446%" stop-color="#ffe7b5" stop-opacity="1"></stop><stop offset="85.55555555555554%" stop-color="#fff6c2" stop-opacity="1"></stop></linearGradient></defs><g transform="translate(960, 0)"><path d="M0 486C-64.4 473.6 -128.9 461.3 -178.3 430.5C-227.8 399.8 -262.3 350.6 -309.7 309.7C-357.1 268.8 -417.5 236.2 -449 186C-480.5 135.7 -483.3 67.9 -486 0L0 0Z" fill="#ffefbb"></path><path d="M0 416.6C-55.2 406 -110.5 395.4 -152.9 369C-195.3 342.7 -224.8 300.5 -265.5 265.5C-306.1 230.4 -357.8 202.5 -384.9 159.4C-411.9 116.4 -414.2 58.2 -416.6 0L0 0Z" fill="#ffe0b0"></path><path d="M0 347.1C-46 338.3 -92 329.5 -127.4 307.5C-162.7 285.5 -187.4 250.4 -221.2 221.2C-255.1 192 -298.2 168.7 -320.7 132.8C-343.2 97 -345.2 48.5 -347.1 0L0 0Z" fill="#ffd1a9"></path><path d="M0 277.7C-36.8 270.7 -73.6 263.6 -101.9 246C-130.2 228.4 -149.9 200.3 -177 177C-204.1 153.6 -238.6 135 -256.6 106.3C-274.6 77.6 -276.2 38.8 -277.7 0L0 0Z" fill="#ffc2a6"></path><path d="M0 208.3C-27.6 203 -55.2 197.7 -76.4 184.5C-97.6 171.3 -112.4 150.3 -132.7 132.7C-153.1 115.2 -178.9 101.2 -192.4 79.7C-205.9 58.2 -207.1 29.1 -208.3 0L0 0Z" fill="#ffb4a7"></path><path d="M0 138.9C-18.4 135.3 -36.8 131.8 -51 123C-65.1 114.2 -74.9 100.2 -88.5 88.5C-102 76.8 -119.3 67.5 -128.3 53.1C-137.3 38.8 -138.1 19.4 -138.9 0L0 0Z" fill="#fca7aa"></path><path d="M0 69.4C-9.2 67.7 -18.4 65.9 -25.5 61.5C-32.5 57.1 -37.5 50.1 -44.2 44.2C-51 38.4 -59.6 33.7 -64.1 26.6C-68.6 19.4 -69 9.7 -69.4 0L0 0Z" fill="#f7a1ad"></path></g><g transform="translate(0, 540)"><path d="M0 -486C53.4 -456 106.9 -426 168.8 -407.4C230.7 -388.9 301 -381.7 343.7 -343.7C386.3 -305.6 401.3 -236.6 420.4 -174.1C439.5 -111.7 462.7 -55.8 486 0L0 0Z" fill="#ffefbb"></path><path d="M0 -416.6C45.8 -390.9 91.6 -365.1 144.7 -349.2C197.7 -333.3 258 -327.2 294.6 -294.6C331.1 -261.9 343.9 -202.8 360.3 -149.2C376.7 -95.7 396.6 -47.9 416.6 0L0 0Z" fill="#ffe0b0"></path><path d="M0 -347.1C38.2 -325.7 76.3 -304.3 120.5 -291C164.8 -277.8 215 -272.7 245.5 -245.5C275.9 -218.3 286.6 -169 300.3 -124.4C313.9 -79.8 330.5 -39.9 347.1 0L0 0Z" fill="#ffd1a9"></path><path d="M0 -277.7C30.5 -260.6 61.1 -243.4 96.4 -232.8C131.8 -222.2 172 -218.1 196.4 -196.4C220.7 -174.6 229.3 -135.2 240.2 -99.5C251.1 -63.8 264.4 -31.9 277.7 0L0 0Z" fill="#ffc2a6"></path><path d="M0 -208.3C22.9 -195.4 45.8 -182.6 72.3 -174.6C98.9 -166.7 129 -163.6 147.3 -147.3C165.6 -131 172 -101.4 180.2 -74.6C188.3 -47.9 198.3 -23.9 208.3 0L0 0Z" fill="#ffb4a7"></path><path d="M0 -138.9C15.3 -130.3 30.5 -121.7 48.2 -116.4C65.9 -111.1 86 -109.1 98.2 -98.2C110.4 -87.3 114.6 -67.6 120.1 -49.7C125.6 -31.9 132.2 -16 138.9 0L0 0Z" fill="#fca7aa"></path><path d="M0 -69.4C7.6 -65.1 15.3 -60.9 24.1 -58.2C33 -55.6 43 -54.5 49.1 -49.1C55.2 -43.7 57.3 -33.8 60.1 -24.9C62.8 -16 66.1 -8 69.4 0L0 0Z" fill="#f7a1ad"></path></g></svg>