<svg id="visual" viewBox="0 0 450 900" width="450" height="900" xmlns="http://www.w3.org/2000/svg" xmlns:xlink="http://www.w3.org/1999/xlink" version="1.1"><rect x="0" y="0" width="450" height="900" fill="#fff6c2"></rect><defs><linearGradient id="grad1_0" x1="0%" y1="0%" x2="100%" y2="100%"><stop offset="30%" stop-color="#f7a1ad" stop-opacity="1"></stop><stop offset="70%" stop-color="#f7a1ad" stop-opacity="1"></stop></linearGradient></defs><defs><linearGradient id="grad1_1" x1="0%" y1="0%" x2="100%" y2="100%"><stop offset="30%" stop-color="#f7a1ad" stop-opacity="1"></stop><stop offset="70%" stop-color="#ffada8" stop-opacity="1"></stop></linearGradient></defs><defs><linearGradient id="grad1_2" x1="0%" y1="0%" x2="100%" y2="100%"><stop offset="30%" stop-color="#ffbba6" stop-opacity="1"></stop><stop offset="70%" stop-color="#ffada8" stop-opacity="1"></stop></linearGradient></defs><defs><linearGradient id="grad1_3" x1="0%" y1="0%" x2="100%" y2="100%"><stop offset="30%" stop-color="#ffbba6" stop-opacity="1"></stop><stop offset="70%" stop-color="#ffcaa7" stop-opacity="1"></stop></linearGradient></defs><defs><linearGradient id="grad1_4" x1="0%" y1="0%" x2="100%" y2="100%"><stop offset="30%" stop-color="#ffd9ac" stop-opacity="1"></stop><stop offset="70%" stop-color="#ffcaa7" stop-opacity="1"></stop></linearGradient></defs><defs><linearGradient id="grad1_5" x1="0%" y1="0%" x2="100%" y2="100%"><stop offset="30%" stop-color="#ffd9ac" stop-opacity="1"></stop><stop offset="70%" stop-color="#ffe7b5" stop-opacity="1"></stop></linearGradient></defs><defs><linearGradient id="grad1_6" x1="0%" y1="0%" x2="100%" y2="100%"><stop offset="30%" stop-color="#fff6c2" stop-opacity="1"></stop><stop offset="70%" stop-color="#ffe7b5" stop-opacity="1"></stop></linearGradient></defs><defs><linearGradient id="grad2_0" x1="0%" y1="0%" x2="100%" y2="100%"><stop offset="30%" stop-color="#f7a1ad" stop-opacity="1"></stop><stop offset="70%" stop-color="#f7a1ad" stop-opacity="1"></stop></linearGradient></defs><defs><linearGradient id="grad2_1" x1="0%" y1="0%" x2="100%" y2="100%"><stop offset="30%" stop-color="#ffada8" stop-opacity="1"></stop><stop offset="70%" stop-color="#f7a1ad" stop-opacity="1"></stop></linearGradient></defs><defs><linearGradient id="grad2_2" x1="0%" y1="0%" x2="100%" y2="100%"><stop offset="30%" stop-color="#ffada8" stop-opacity="1"></stop><stop offset="70%" stop-color="#ffbba6" stop-opacity="1"></stop></linearGradient></defs><defs><linearGradient id="grad2_3" x1="0%" y1="0%" x2="100%" y2="100%"><stop offset="30%" stop-color="#ffcaa7" stop-opacity="1"></stop><stop offset="70%" stop-color="#ffbba6" stop-opacity="1"></stop></linearGradient></defs><defs><linearGradient id="grad2_4" x1="0%" y1="0%" x2="100%" y2="100%"><stop offset="30%" stop-color="#ffcaa7" stop-opacity="1"></stop><stop offset="70%" stop-color="#ffd9ac" stop-opacity="1"></stop></linearGradient></defs><defs><linearGradient id="grad2_5" x1="0%" y1="0%" x2="100%" y2="100%"><stop offset="30%" stop-color="#ffe7b5" stop-opacity="1"></stop><stop offset="70%" stop-color="#ffd9ac" stop-opacity="1"></stop></linearGradient></defs><defs><linearGradient id="grad2_6" x1="0%" y1="0%" x2="100%" y2="100%"><stop offset="30%" stop-color="#ffe7b5" stop-opacity="1"></stop><stop offset="70%" stop-color="#fff6c2" stop-opacity="1"></stop></linearGradient></defs><g transform="translate(450, 0)"><path d="M0 405C-58.7 404.7 -117.4 404.5 -155 374.2C-192.6 343.9 -209 283.5 -244.7 244.7C-280.3 205.8 -335 188.4 -364.9 151.2C-394.8 114 -399.9 57 -405 0L0 0Z" fill="#ffefbb"></path><path d="M0 347.1C-50.3 346.9 -100.6 346.7 -132.8 320.7C-165.1 294.7 -179.2 243 -209.7 209.7C-240.2 176.4 -287.2 161.5 -312.8 129.6C-338.4 97.7 -342.8 48.8 -347.1 0L0 0Z" fill="#ffe0b0"></path><path d="M0 289.3C-41.9 289.1 -83.9 288.9 -110.7 267.3C-137.6 245.6 -149.3 202.5 -174.8 174.8C-200.2 147 -239.3 134.5 -260.7 108C-282 81.4 -285.7 40.7 -289.3 0L0 0Z" fill="#ffd1a9"></path><path d="M0 231.4C-33.5 231.3 -67.1 231.1 -88.6 213.8C-110 196.5 -119.5 162 -139.8 139.8C-160.2 117.6 -191.4 107.6 -208.5 86.4C-225.6 65.1 -228.5 32.6 -231.4 0L0 0Z" fill="#ffc2a6"></path><path d="M0 173.6C-25.2 173.5 -50.3 173.3 -66.4 160.4C-82.5 147.4 -89.6 121.5 -104.9 104.9C-120.1 88.2 -143.6 80.7 -156.4 64.8C-169.2 48.8 -171.4 24.4 -173.6 0L0 0Z" fill="#ffb4a7"></path><path d="M0 115.7C-16.8 115.6 -33.5 115.6 -44.3 106.9C-55 98.2 -59.7 81 -69.9 69.9C-80.1 58.8 -95.7 53.8 -104.3 43.2C-112.8 32.6 -114.3 16.3 -115.7 0L0 0Z" fill="#fca7aa"></path><path d="M0 57.9C-8.4 57.8 -16.8 57.8 -22.1 53.5C-27.5 49.1 -29.9 40.5 -35 35C-40 29.4 -47.9 26.9 -52.1 21.6C-56.4 16.3 -57.1 8.1 -57.9 0L0 0Z" fill="#f7a1ad"></path></g><g transform="translate(0, 900)"><path d="M0 -405C53.2 -400.1 106.5 -395.2 155 -374.2C203.5 -353.1 247.3 -315.9 272.9 -272.9C298.6 -230 306.2 -181.2 325.2 -134.7C344.2 -88.2 374.6 -44.1 405 0L0 0Z" fill="#ffefbb"></path><path d="M0 -347.1C45.6 -342.9 91.3 -338.8 132.8 -320.7C174.4 -302.7 211.9 -270.8 234 -234C256 -197.1 262.5 -155.3 278.7 -115.5C295 -75.6 321.1 -37.8 347.1 0L0 0Z" fill="#ffe0b0"></path><path d="M0 -289.3C38 -285.8 76.1 -282.3 110.7 -267.3C145.4 -252.2 176.6 -225.7 195 -195C213.3 -164.3 218.7 -129.4 232.3 -96.2C245.9 -63 267.6 -31.5 289.3 0L0 0Z" fill="#ffd1a9"></path><path d="M0 -231.4C30.4 -228.6 60.8 -225.8 88.6 -213.8C116.3 -201.8 141.3 -180.5 156 -156C170.6 -131.4 175 -103.5 185.8 -77C196.7 -50.4 214.1 -25.2 231.4 0L0 0Z" fill="#ffc2a6"></path><path d="M0 -173.6C22.8 -171.5 45.6 -169.4 66.4 -160.4C87.2 -151.3 106 -135.4 117 -117C128 -98.6 131.2 -77.6 139.4 -57.7C147.5 -37.8 160.5 -18.9 173.6 0L0 0Z" fill="#ffb4a7"></path><path d="M0 -115.7C15.2 -114.3 30.4 -112.9 44.3 -106.9C58.1 -100.9 70.6 -90.3 78 -78C85.3 -65.7 87.5 -51.8 92.9 -38.5C98.3 -25.2 107 -12.6 115.7 0L0 0Z" fill="#fca7aa"></path><path d="M0 -57.9C7.6 -57.2 15.2 -56.5 22.1 -53.5C29.1 -50.4 35.3 -45.1 39 -39C42.7 -32.9 43.7 -25.9 46.5 -19.2C49.2 -12.6 53.5 -6.3 57.9 0L0 0Z" fill="#f7a1ad"></path></g></svg>